<svg xmlns="http://www.w3.org/2000/svg" width="70" height="70" viewBox="0 0 70 70"><defs><style> .cls-1{fill:#24bbe3} </style></defs><g id="graduate" transform="translate(0 0)"><path id="Path_2448" d="M57.757 332.9H12.243a12.243 12.243 0 1 0 0 24.486h45.514a12.243 12.243 0 1 0 0-24.486zM4.1 345.142a8.142 8.142 0 0 1 16.021-2.051h-7.88a2.051 2.051 0 0 0-2.051 2.051 12.273 12.273 0 0 0 3.054 8.078 8.126 8.126 0 0 1-9.144-8.078zm13.238 6.343a8.205 8.205 0 0 1-2.78-4.292h5.563a8.16 8.16 0 0 1-2.783 4.292zm40.417 1.8H21.379a12.218 12.218 0 0 0 0-16.283h36.378a8.142 8.142 0 0 1 0 16.283z" class="cls-1" transform="translate(0 -287.385)"/><path id="Path_2449" d="M93.954 8.285L65.79.082a2.051 2.051 0 0 0-1.147 0l-28.164 8.2a2.051 2.051 0 0 0 0 3.938L44.3 14.5v18.982c0 1.8 1.209 4.321 6.967 6.115a48.811 48.811 0 0 0 13.951 1.815 48.816 48.816 0 0 0 13.95-1.812c5.758-1.794 6.967-4.316 6.967-6.115V14.5l5.195-1.513v26.374a2.051 2.051 0 1 0 4.1 0V10.254a2.051 2.051 0 0 0-1.477-1.969zm-28.737-4.1l20.83 6.067-20.83 6.067-20.83-6.067zm16.816 29.274c-.1.269-1.113 1.378-4.618 2.382a46.153 46.153 0 0 1-12.2 1.47 46.153 46.153 0 0 1-12.2-1.47c-3.505-1-4.521-2.113-4.618-2.382V15.7l16.243 4.731a2.049 2.049 0 0 0 1.147 0L82.034 15.7v17.759z" class="cls-1" transform="translate(-30.217 0)"/></g></svg>