<?xml version="1.0" encoding="UTF-8"?>
<svg id="Layer_2" data-name="Layer 2" xmlns="http://www.w3.org/2000/svg" xmlns:xlink="http://www.w3.org/1999/xlink" viewBox="0 0 918.46 878.27">
  <defs>
    <style>
      .cls-1 {
        fill: none;
        stroke-width: 8px;
      }

      .cls-1, .cls-2 {
        stroke: #e6e7e8;
        stroke-miterlimit: 10;
      }

      .cls-3, .cls-2 {
        fill: #c29a0b;
      }

      .cls-4 {
        font-family: ZtShago-BoldItalic, 'Zt Shago';
        font-size: 28.91px;
      }

      .cls-4, .cls-5 {
        fill: #e6e7e8;
      }

      .cls-2 {
        stroke-width: 26px;
      }

      .cls-6 {
        fill: #231f20;
      }
    </style>
    <symbol id="New_Symbol" data-name="New Symbol" viewBox="0 0 174.47 167.25">
      <g>
        <g>
          <path class="cls-1" d="M56.75,112.69L6.18,61.54S73.92,14.19,87.24,4.88c13.32,9.31,81.06,56.66,81.06,56.66l-50.57,51.15"/>
          <path class="cls-5" d="M93.75,30.03c-11.9,8.14-26.65,22.54-7.45,32.3,9.25,5.38,23.41,8.23,28.84,18.4,2.9,5.75,.88,12.63-2.7,17.57-3.34,4.9-7.88,8.92-12.43,12.65-5.7,4.45-11.73,8.56-17.81,12.22-7.46,4.63-15.76,8.96-23.44,13.27,0,0-7.18-15.26-7.18-15.26,16-6.81,32.8-13.12,46.86-23.45,3.88-3.04,10.43-8.32,8.92-13.58-1.37-3.44-4.6-5.63-7.9-7.9-5.11-3.33-10.71-6.11-15.82-9.69-20.04-13.67-5.74-28.24,10.11-36.54h0Z"/>
          <g>
            <polygon class="cls-6" points="93.75 30.03 88.78 33.39 88.73 33.42 88.66 33.32 88.71 33.29 93.75 30.03"/>
            <path class="cls-6" d="M79.74,41.69c-1.27,1.6-2.38,3.34-3.12,5.22-.74,1.88-1.07,3.93-.81,5.91l.04,.31-.62,.08-.03-.31c-.23-2.11,.16-4.25,.97-6.17,.8-1.93,1.97-3.68,3.29-5.27l.12-.14,.29,.23-.12,.15Z"/>
            <path class="cls-6" d="M82.62,62.34c3.31,2.37,6.98,4.21,10.65,6.05l.5,.25-.52,1.01-.5-.26c-3.64-1.92-7.31-3.86-10.66-6.35l-.35-.26,.51-.7,.36,.25Z"/>
            <path class="cls-6" d="M104.21,74.26c1.76,1.13,3.47,2.38,4.97,3.91,1.5,1.52,2.79,3.38,3.38,5.55l.21,.78-1.59,.42-.2-.79c-.46-1.83-1.54-3.49-2.89-4.92-1.36-1.44-2.96-2.67-4.64-3.8l-.57-.38,.74-1.14,.58,.37Z"/>
            <path class="cls-6" d="M109.2,95.92c-2.56,3.4-5.68,6.23-8.93,8.84l-.83,.67-1.32-1.69,.84-.65c3.21-2.47,6.28-5.16,8.74-8.3l.58-.74,1.48,1.12-.56,.75Z"/>
            <polygon class="cls-6" points="90.1 111.94 79.4 118.25 78.27 118.92 77.01 116.59 78.16 115.94 88.84 109.92 89.88 109.34 91.12 111.34 90.1 111.94"/>
            <polygon class="cls-6" points="68.42 124.03 63.02 126.68 61.67 127.35 60.38 124.6 61.74 123.97 67.16 121.44 68.46 120.83 69.71 123.39 68.42 124.03"/>
          </g>
        </g>
        <text class="cls-4" transform="translate(31.23 158.72)"><tspan x="0" y="0">Step Up</tspan></text>
      </g>
    </symbol>
  </defs>
  <g id="Layer_1-2" data-name="Layer 1">
    <use width="174.47" height="167.25" transform="scale(5.25)" xlink:href="#New_Symbol"/>
    <g>
      <line class="cls-2" x1="892.72" y1="319.42" x2="892.72" y2="609.09"/>
      <path class="cls-3" d="M914.3,538.08v22.05c0,2.82-2.22,5.09-4.96,5.09h-32.94c-2.74,0-4.96-2.27-4.96-5.09v-22.05c0-2.24,1.4-4.13,3.35-4.81-3.09-4.62-4.5-10.42-3.51-16.38,2.01-12.16,13.24-20.35,25.08-18.29,11.84,2.06,19.81,13.6,17.8,25.77-.54,3.27-1.75,6.25-3.46,8.82,2.07,.61,3.59,2.57,3.59,4.9Z"/>
    </g>
    <path class="cls-3" d="M892.72,530.47c2.07,.95,5.25,2.63,7.3,3.69,2.21,1.27,7.48,4.21,9.54,5.53,2.74,1.72,5.88,3.71,8.47,5.54,.35,.31,.49,.62,.4,.93-.2,.58-.79,1.18-.67,1.85,0,0,0,.93,0,.93,.06,25.83,.15,59.4,.21,85.23,0,0-5.57,3.72-5.57,3.72-5.99,3.83-13.03,8-19.39,11.17-6.37-3.13-13.44-7.27-19.45-11.07,0,0-5.59-3.69-5.59-3.69-.06-25.83-.15-59.4-.21-85.23,0,0,0-.93,0-.93,.13-.67-.47-1.27-.68-1.85-.09-.31,.05-.62,.4-.93,1.76-1.24,3.64-2.48,5.49-3.72,0,0,2.95-1.86,2.95-1.86,2.03-1.34,7.36-4.3,9.52-5.58,2.04-1.05,5.21-2.77,7.28-3.72h0Z"/>
  </g>
</svg>