<svg xmlns="http://www.w3.org/2000/svg" width="70.275" height="70" viewBox="0 0 70.275 70"><defs><style> .cls-1{fill:#24bbe3} </style></defs><g id="comment" transform="translate(0 -1)"><path id="Path_2445" d="M62.725 1H24.294a7.558 7.558 0 0 0-7.549 7.549v17.157h-9.2A7.558 7.558 0 0 0 0 33.255v21.961a7.558 7.558 0 0 0 7.549 7.549h12.624l4.879 7.318a2.059 2.059 0 0 0 3.426 0l4.879-7.318H45.98a7.558 7.558 0 0 0 7.549-7.549V38.059h9.2a7.558 7.558 0 0 0 7.549-7.549V8.549A7.558 7.558 0 0 0 62.725 1zM49.412 55.216a3.435 3.435 0 0 1-3.431 3.431H32.255a2.059 2.059 0 0 0-1.713.917l-3.777 5.666-3.777-5.666a2.059 2.059 0 0 0-1.713-.917H7.549a3.435 3.435 0 0 1-3.431-3.431V33.255a3.435 3.435 0 0 1 3.431-3.431h9.2v.686a7.5 7.5 0 0 0 .828 3.431h-7.283a2.059 2.059 0 1 0 0 4.118h26.624l2.745 4.118H10.294a2.059 2.059 0 1 0 0 4.118H43.51a2.058 2.058 0 0 0 1.713-.917l4.189-6.283zM66.157 30.51a3.435 3.435 0 0 1-3.431 3.431H49a2.058 2.058 0 0 0-1.713.917l-3.777 5.666-3.777-5.666a2.059 2.059 0 0 0-1.713-.917H24.294a3.435 3.435 0 0 1-3.431-3.431V8.549a3.435 3.435 0 0 1 3.431-3.431h38.431a3.435 3.435 0 0 1 3.431 3.431z" class="cls-1"/><path id="Path_2446" d="M95 361H62.059a2.059 2.059 0 1 0 0 4.118H95A2.059 2.059 0 1 0 95 361z" class="cls-1" transform="translate(-51.765 -310.588)"/><path id="Path_2447" d="M253.57 61.427l-5.57-.809-2.49-5.045a2.059 2.059 0 0 0-3.692 0l-2.49 5.045-5.568.809a2.059 2.059 0 0 0-1.141 3.512l4.029 3.927-.951 5.545a2.059 2.059 0 0 0 2.987 2.171l4.98-2.618 4.98 2.618a2.059 2.059 0 0 0 2.987-2.17l-.951-5.545 4.029-3.927a2.059 2.059 0 0 0-1.141-3.512zm-6.537 5.246a2.058 2.058 0 0 0-.592 1.822l.429 2.5-2.245-1.181a2.059 2.059 0 0 0-1.916 0L240.463 71l.429-2.5a2.058 2.058 0 0 0-.592-1.822l-1.817-1.778 2.511-.365a2.059 2.059 0 0 0 1.55-1.126l1.123-2.275 1.123 2.275a2.059 2.059 0 0 0 1.55 1.126l2.511.365z" class="cls-1" transform="translate(-200.156 -46.092)"/></g></svg>