<svg xmlns="http://www.w3.org/2000/svg" xmlns:xlink="http://www.w3.org/1999/xlink" version="1.1" id="Layer_1" x="0px" y="0px" viewBox="0 0 511 512" style="enable-background:new 0 0 511 512;" xml:space="preserve"> <style type="text/css"> .st0{fill:#0DBAE5;} </style> <g> <path class="st0" d="M228.7,352.2c-3.2,0-6.2-1.2-8.5-3.5c-4.7-4.7-4.7-12.3,0-17c2.3-2.3,5.3-3.5,8.5-3.5c3.2,0,6.2,1.2,8.5,3.5 c4.7,4.7,4.7,12.3,0,17C234.9,350.9,231.9,352.2,228.7,352.2z"/> </g> <g> <path class="st0" d="M281.4,239.9c-62.8,0-114-51.1-114-114c0-62.8,51.1-114,114-114s114,51.1,114,114 C395.4,188.8,344.3,239.9,281.4,239.9z M281.4,40c-47.4,0-86,38.6-86,86c0,47.4,38.6,86,86,86c47.4,0,86-38.6,86-86 C367.4,78.6,328.8,40,281.4,40z"/> </g> <g> <path class="st0" d="M125.4,513.3c-3.7,0-7.2-1.4-9.8-4.1L5.8,398.5c-5.3-5.4-5.3-14.1,0-19.4l46.5-46.7c6.3-6.3,14.7-9.8,23.6-9.8 c1.1,0,2.2,0.1,3.3,0.2c22.5-39.6,63.5-62.2,112.5-62.2c17.3,0,34,3.3,49.8,9.8h108.3c11.4,0,22.4,4.6,30.5,12.7l54.7-56.2 c8.2-9.4,20.1-14.9,32.6-14.9c10.2,0,20,3.6,27.8,10.1c18.2,15.4,20.5,42.6,5.1,60.8c-38.4,45.9-60.2,71.9-72.5,86.6 c-15.7,18.8-16.2,19.3-16.6,19.7c-17.3,16.8-40.1,26-64.1,26H217.3c-6.6,0-12.9,2.5-17.6,7.1l-8.5,8.2c2.9,11.3-0.4,23.8-8.7,32 l-47.5,46.8C132.5,511.9,129.1,513.3,125.4,513.3z M125.5,480l37.6-37c2.2-2.2,2.2-5.9-0.1-8.1c-35.2-35.1-55.3-55.3-67.4-67.4 l-0.2-0.2c-11.9-11.9-15.6-15.6-16.2-16.1l-0.2-0.1c-1-0.6-2.1-0.9-3.2-0.9c-1.5,0-3,0.6-4.1,1.7l-36.9,37L125.5,480z M175,407.8 l5.5-5.3c9.9-9.6,23-14.8,36.7-14.8h130.1c16.7,0,32.5-6.3,44.5-17.8l87.6-104.7c5.6-6.6,4.8-16.5-1.8-22c-2.8-2.4-6.3-3.6-10-3.6 c-4.6,0-9,2-11.9,5.5c-0.3,0.4-0.7,0.8-23.1,23.8l-39.8,40.9c0.1,1.2,0.2,2.5,0.2,3.7c0,23.8-19.4,43.1-43.1,43.1H270 c-7.6,0-13.8-6.2-13.8-13.8c0-7.6,6.2-13.8,13.8-13.8h79.8c8.6,0,15.6-7,15.6-15.6c0-8.6-7-15.6-15.6-15.6H238.7 c-1.9,0-3.8-0.4-5.5-1.2c-13.1-5.7-27-8.6-41.5-8.6c-38.8,0-70.9,17.5-88.4,48L175,407.8z"/> </g> <g> <path class="st0" d="M279.4,195.9c-7.7,0-14-6.3-14-14V173c-6.4-2.7-12.3-7.2-17.4-13.2c-2.4-2.9-3.6-6.5-3.2-10.2 c0.3-3.7,2.1-7.1,4.9-9.5c2.5-2.1,5.7-3.3,9-3.3c4.1,0,8.1,1.8,10.7,5c3.3,4,6.8,6.1,9.9,6.1c3.3,0,6-2.7,6-6s-2.7-6-6-6 c-18.7,0-34-15.2-34-34c0-13.5,7.8-25.5,20-31v-9c0-7.7,6.3-14,14-14s14,6.3,14,14v8.9c4.8,2,9.3,5.1,13.5,9.1 c5.5,5.4,5.7,14.2,0.3,19.8c-2.7,2.7-6.2,4.3-10.1,4.3c-3.7,0-7.1-1.4-9.7-3.9c-2.8-2.7-5.5-4.1-8-4.1c-3.3,0-6,2.7-6,6 c0,3.3,2.7,6,6,6c18.7,0,34,15.2,34,34c0,13.5-7.8,25.5-20,31v9C293.4,189.7,287.1,195.9,279.4,195.9z"/> </g> </svg>