<svg xmlns="http://www.w3.org/2000/svg" width="77.068" height="72" viewBox="0 0 77.068 72"><defs><style> .cls-1{fill:#00bae5} </style></defs><g id="Group_542" transform="translate(-211.936 -408.707)"><path id="Path_65" d="M250.82 432.041c.42.844.742 1.573 1.149 2.251.105.175.479.257.732.264 1.031.029 2.064 0 3.1.014a2.534 2.534 0 0 1 2.618 2.51 2.488 2.488 0 0 1-2.5 2.622q-5.2.059-10.406-.014a2.528 2.528 0 0 1-2.524-2.53 2.624 2.624 0 0 1 2.479-2.589c.218-.016.436-.043.768-.077-.173-.382-.3-.69-.45-.987q-5.114-10.221-10.215-20.448a4.2 4.2 0 0 1-.472-1.958 2.4 2.4 0 0 1 2.129-2.25 2.583 2.583 0 0 1 2.76 1.463c1.221 2.4 2.418 4.811 3.622 7.22 1.4 2.793 2.8 5.58 4.17 8.387a1.182 1.182 0 0 0 1.294.83 21.564 21.564 0 0 1 2.836 0 1.147 1.147 0 0 0 1.242-.77c2.575-5.181 5.191-10.342 7.77-15.522a2.691 2.691 0 0 1 2.612-1.743 2.557 2.557 0 0 1 2.153 3.816c-1.016 2.118-2.1 4.2-3.164 6.3-1.3 2.576-2.613 5.149-3.987 7.858.433.02.758.049 1.083.049 5.389 0 10.78-.034 16.169.012a12.667 12.667 0 0 1 12.084 7.593A11.666 11.666 0 0 1 289 439.5q.008 14.193 0 28.386a12.8 12.8 0 0 1-12.726 12.8c-6.995.038-13.99.013-20.985.013-10.12 0-20.24.042-30.36-.022-5.432-.034-9.381-2.6-11.8-7.47a11.317 11.317 0 0 1-1.175-5.066q-.021-14.408 0-28.816a12.7 12.7 0 0 1 11.955-12.47c4.237-.156 8.484-.074 12.727-.06a2.471 2.471 0 0 1 2.516 2.6 2.544 2.544 0 0 1-2.7 2.524c-3.784.012-7.569-.008-11.352-.006a7.347 7.347 0 0 0-6.918 3.849 8.288 8.288 0 0 0-1.044 3.742c-.085 9.49-.069 18.981-.036 28.471a7.576 7.576 0 0 0 7.728 7.574c6.708.033 13.417.01 20.125.01h30.79c3.665 0 6.587-1.9 7.659-5.116a8.752 8.752 0 0 0 .434-2.7q.046-13.806.013-27.611c-.01-4.883-3.2-8.1-8.064-8.112-8.027-.024-16.054-.011-24.081-.011-.229-.009-.455.013-.886.032z" class="cls-1" transform="translate(0)"/><path id="Path_66" d="M272.53 513.205a7.219 7.219 0 1 1-7.251-7.256 7.188 7.188 0 0 1 7.251 7.256zm-9.366.2a2.109 2.109 0 0 0 1.918 2.152 2.421 2.421 0 0 0 2.418-2.212 2.135 2.135 0 0 0-2.165-2.1 2.08 2.08 0 0 0-2.171 2.155z" class="cls-1" transform="translate(-30.28 -63.794)"/><path id="Path_67" d="M337.34 523.177h-9.716a2.58 2.58 0 1 1-.05-5.138q9.8-.012 19.6 0a2.569 2.569 0 0 1 2.554 1.553 2.437 2.437 0 0 1-.441 2.721 2.588 2.588 0 0 1-2.148.874c-3.264-.018-6.532-.01-9.799-.01z" class="cls-1" transform="translate(-74.031 -71.722)"/><path id="Path_68" d="M259.528 555.908c3.415-.333 6.181.479 8.232 2.937a11.367 11.367 0 0 1 1.841 3.346 2.457 2.457 0 0 1-1.721 3.248 2.6 2.6 0 0 1-3.169-1.788 3.7 3.7 0 0 0-3.75-2.707q-1.418-.029-2.837 0a3.818 3.818 0 0 0-3.789 2.689 4.1 4.1 0 0 1-.764 1.317 2.494 2.494 0 0 1-3 .445 2.606 2.606 0 0 1-1.09-3.079 8.938 8.938 0 0 1 8.265-6.4c.689-.036 1.378-.008 1.782-.008z" class="cls-1" transform="translate(-24.548 -96.523)"/><path id="Path_69" d="M332.534 545.642h-6.527a2.566 2.566 0 0 1-2.757-2.546 2.6 2.6 0 0 1 2.718-2.6q6.527-.013 13.054 0a2.578 2.578 0 1 1-.047 5.146c-2.147.003-4.294 0-6.441 0z" class="cls-1" transform="translate(-73.027 -86.454)"/><path id="Path_70" d="M332.49 562.927c2.175 0 4.35-.006 6.524 0a2.539 2.539 0 0 1 2.723 2.483 2.588 2.588 0 0 1-2.669 2.647q-6.567.03-13.134 0a2.584 2.584 0 0 1-2.68-2.636 2.552 2.552 0 0 1 2.712-2.495c2.174-.005 4.349.001 6.524.001z" class="cls-1" transform="translate(-73.028 -101.173)"/></g></svg>