<?xml version="1.0" encoding="UTF-8"?>
<svg id="Layer_2" data-name="Layer 2" xmlns="http://www.w3.org/2000/svg" viewBox="0 0 153.39 114.84">
  <defs>
    <style>
      .cls-1 {
        fill: #fff;
      }

      .cls-2 {
        stroke-width: 3.17px;
      }

      .cls-2, .cls-3, .cls-4 {
        stroke: #231f20;
        stroke-miterlimit: 10;
      }

      .cls-2, .cls-5 {
        fill: #c29a0b;
      }

      .cls-3 {
        stroke-width: 4.15px;
      }

      .cls-3, .cls-4 {
        fill: none;
      }

      .cls-4 {
        stroke-width: 4.87px;
      }

      .cls-6 {
        fill: #231f20;
      }
    </style>
  </defs>
  <g id="Layer_1-2" data-name="Layer 1">
    <g>
      <path class="cls-4" d="M108.7,64.31l9.98-4.78,31.72-15.18c.33-.15,.52-.55,.56-.97v-.36c-.04-.41-.22-.79-.53-.97L77.02,2.5c-.18-.09-.38-.09-.56,0L2.97,42.05c-.73,.4-.71,1.94,.03,2.3l31.8,15.2,9.9,4.74"/>
      <polyline class="cls-4" points="7.68 47.23 7.68 56.03 43.56 73.5 49.38 76.33"/>
      <polyline class="cls-4" points="146.68 47.23 146.68 56.03 110.8 73.5 104.98 76.33"/>
      <polyline class="cls-3" points="17.11 62.51 17.11 70.02 47.72 84.92 52.68 87.33"/>
      <polyline class="cls-3" points="135.68 62.51 135.68 70.02 105.07 84.92 100.11 87.33"/>
    </g>
    <g id="New_Symbol" data-name="New Symbol">
      <g>
        <path class="cls-6" d="M78.21,8.42c-11.9,8.14-26.65,22.54-7.45,32.3,9.25,5.38,23.41,8.23,28.84,18.4,2.9,5.75,.88,12.63-2.7,17.57-3.34,4.9-7.88,8.92-12.43,12.65-5.7,4.45-11.73,8.56-17.81,12.22-7.46,4.63-15.76,8.96-23.44,13.27,0,0-7.18-15.26-7.18-15.26,16-6.81,32.8-13.12,46.86-23.45,3.88-3.04,10.43-8.32,8.92-13.58-1.37-3.44-4.6-5.63-7.9-7.9-5.11-3.33-10.71-6.11-15.82-9.69-20.04-13.67-5.74-28.24,10.11-36.54h0Z"/>
        <g>
          <polygon class="cls-1" points="78.21 8.42 73.24 11.78 73.19 11.81 73.12 11.71 73.17 11.68 78.21 8.42"/>
          <path class="cls-1" d="M64.2,20.07c-1.27,1.6-2.38,3.34-3.12,5.22-.74,1.88-1.07,3.93-.81,5.91l.04,.31-.62,.08-.03-.31c-.23-2.11,.16-4.25,.97-6.17,.8-1.93,1.97-3.68,3.29-5.27l.12-.14,.29,.23-.12,.15Z"/>
          <path class="cls-1" d="M67.09,40.73c3.31,2.37,6.98,4.21,10.65,6.05l.5,.25-.52,1.01-.5-.26c-3.64-1.92-7.31-3.86-10.66-6.35l-.35-.26,.51-.7,.36,.25Z"/>
          <path class="cls-1" d="M88.67,52.64c1.76,1.13,3.47,2.38,4.97,3.91,1.5,1.52,2.79,3.38,3.38,5.55l.21,.78-1.59,.42-.2-.79c-.46-1.83-1.54-3.49-2.89-4.92-1.36-1.44-2.96-2.67-4.64-3.8l-.57-.38,.74-1.14,.58,.37Z"/>
          <path class="cls-1" d="M93.66,74.31c-2.56,3.4-5.68,6.23-8.93,8.84l-.83,.67-1.32-1.69,.84-.65c3.21-2.47,6.28-5.16,8.74-8.3l.58-.74,1.48,1.12-.56,.75Z"/>
          <polygon class="cls-1" points="74.56 90.33 63.87 96.64 62.73 97.31 61.47 94.97 62.62 94.33 73.3 88.31 74.34 87.72 75.58 89.72 74.56 90.33"/>
          <polygon class="cls-1" points="52.88 102.41 47.48 105.07 46.13 105.73 44.84 102.99 46.2 102.35 51.62 99.83 52.92 99.22 54.17 101.78 52.88 102.41"/>
        </g>
      </g>
    </g>
    <g>
      <line class="cls-2" x1="149.18" y1="47.15" x2="149.18" y2="84.42"/>
      <path class="cls-5" d="M151.83,83.05v3.48s0,.02-.02,.02h-4.95v-3.49c0-.29,.16-.53,.39-.62-.36-.59-.52-1.34-.41-2.11,.23-1.56,1.53-2.62,2.91-2.35,1.37,.27,2.3,1.75,2.06,3.32-.06,.42-.2,.8-.4,1.13,.24,.08,.42,.33,.42,.63Z"/>
    </g>
    <path class="cls-5" d="M149.33,82.08c1.27,.63,2.18,1.27,3.09,1.9-.06,.64-.01,1.27-.03,1.91,0,1.9,.01,5.73,.02,7.63,0,0,0,1.91,0,1.91-.93,.64-1.83,1.28-3.05,1.91-1.23-.63-2.13-1.27-3.06-1.9v-1.91c0-1.9-.02-5.73-.02-7.63-.02-.64,.03-1.27-.03-1.91,.91-.64,1.81-1.28,3.08-1.91h0Z"/>
  </g>
</svg>